<?xml version="1.0" encoding="UTF-8" standalone="no"?>
<!DOCTYPE svg PUBLIC "-//W3C//DTD SVG 1.1//EN"
 "http://www.w3.org/Graphics/SVG/1.1/DTD/svg11.dtd">
<!-- Generated by graphviz version 12.2.1 (20241206.2353)
 -->
<!-- Pages: 1 -->
<svg width="1077pt" height="720pt"
 viewBox="0.00 0.00 1076.99 720.00" xmlns="http://www.w3.org/2000/svg" xmlns:xlink="http://www.w3.org/1999/xlink">
<g id="graph0" class="graph" transform="scale(0.752921 0.752921) rotate(0) translate(4 952.28)">
<polygon fill="white" stroke="none" points="-4,4 -4,-952.28 1426.41,-952.28 1426.41,4 -4,4"/>
<g id="clust3" class="cluster">
<title>cluster_storage</title>
<polygon fill="#eceeff" stroke="#3b48cc" stroke-dasharray="5,2" points="985.43,-819.27 985.43,-940.27 1342.47,-940.27 1342.47,-819.27 985.43,-819.27"/>
<text text-anchor="middle" x="1163.95" y="-922.98" font-family="Times,serif" font-size="14.00">Storage &amp; Messaging</text>
</g>
<g id="clust4" class="cluster">
<title>cluster_security</title>
<polygon fill="#ffe6ff" fill-opacity="0.901961" stroke="#d82b1f" stroke-dasharray="5,2" points="646.73,-591.27 646.73,-811.27 1177.7,-811.27 1177.7,-591.27 646.73,-591.27"/>
<text text-anchor="middle" x="912.22" y="-793.98" font-family="Times,serif" font-size="14.00">Security</text>
</g>
<g id="clust5" class="cluster">
<title>cluster_networking</title>
<polygon fill="#e6ffe6" stroke="#16b642" stroke-dasharray="5,2" points="353.6,-348.27 353.6,-553.27 582.83,-553.27 582.83,-348.27 353.6,-348.27"/>
<text text-anchor="middle" x="468.22" y="-535.98" font-family="Times,serif" font-size="14.00">Networking</text>
</g>
<g id="clust6" class="cluster">
<title>cluster_monitoring</title>
<polygon fill="#e6ffe6" stroke="#16b642" stroke-dasharray="5,2" points="18.34,-352.27 18.34,-459.27 299.15,-459.27 299.15,-352.27 18.34,-352.27"/>
<text text-anchor="middle" x="158.75" y="-441.97" font-family="Times,serif" font-size="14.00">Monitoring</text>
</g>
<!-- API Gateway -->
<g id="node1" class="node">
<title>API Gateway</title>
<image xlink:href="Resource-Icons_06072024/Res_Networking-Content-Delivery/Res_Amazon-API-Gateway_Endpoint_48.png" width="48px" height="48px" preserveAspectRatio="xMinYMin meet" x="444.413" y="-202.35"/>
<text text-anchor="middle" x="468.41" y="-138.65" font-family="Arial" font-size="14.00">API Gateway</text>
</g>
<!-- Lambda Functions -->
<g id="node3" class="node">
<title>Lambda Functions</title>
<image xlink:href="Resource-Icons_06072024/Res_Compute/Res_AWS-Lambda_Lambda-Function_48.png" width="48px" height="48px" preserveAspectRatio="xMinYMin meet" x="759.413" y="-171.35"/>
<text text-anchor="middle" x="783.41" y="-107.65" font-family="Arial" font-size="14.00">Lambda Functions</text>
</g>
<!-- API Gateway&#45;&gt;Lambda Functions -->
<g id="edge1" class="edge">
<title>API Gateway&#45;&gt;Lambda Functions</title>
<path fill="none" stroke="#666666" d="M507.99,-159.63C507.99,-159.63 716.04,-159.63 716.04,-159.63"/>
<polygon fill="#666666" stroke="#666666" points="716.04,-163.13 726.04,-159.63 716.04,-156.13 716.04,-163.13"/>
<text text-anchor="middle" x="591.01" y="-146.33" font-family="Times,serif" font-size="14.00">invokes</text>
</g>
<!-- IAM Roles -->
<g id="node8" class="node">
<title>IAM Roles</title>
<image xlink:href="Resource-Icons_06072024/Res_Security-Identity-Compliance/Res_AWS-Identity-Access-Management_Role_48.png" width="48px" height="48px" preserveAspectRatio="xMinYMin meet" x="1063.41" y="-665.35"/>
<text text-anchor="middle" x="1087.41" y="-601.65" font-family="Arial" font-size="14.00">IAM Roles</text>
</g>
<!-- API Gateway&#45;&gt;IAM Roles -->
<g id="edge2" class="edge">
<title>API Gateway&#45;&gt;IAM Roles</title>
<path fill="none" stroke="#666666" d="M501.41,-202.35C501.41,-235.13 501.41,-280.5 501.41,-280.5 501.41,-280.5 1106.41,-280.5 1106.41,-280.5 1106.41,-280.5 1106.41,-587.98 1106.41,-587.98"/>
<polygon fill="#666666" stroke="#666666" points="1102.91,-587.98 1106.41,-597.98 1109.91,-587.98 1102.91,-587.98"/>
<text text-anchor="middle" x="895.7" y="-267.2" font-family="Times,serif" font-size="14.00">assumes</text>
</g>
<!-- IoT Core -->
<g id="node2" class="node">
<title>IoT Core</title>
<image xlink:href="Architecture-Service-Icons_06072024/Arch_Internet-of-Things/48/Arch_AWS-IoT-Core_48.png" width="54px" height="64px" preserveAspectRatio="xMinYMin meet" x="441.413" y="-338.55"/>
<text text-anchor="middle" x="468.41" y="-260.45" font-family="Arial" font-size="14.00">IoT Core</text>
</g>
<!-- S3 Buckets -->
<g id="node4" class="node">
<title>S3 Buckets</title>
<image xlink:href="Resource-Icons_06072024/Res_Storage/Res_Amazon-Simple-Storage-Service_S3-Standard_48.png" width="48px" height="48px" preserveAspectRatio="xMinYMin meet" x="1318.41" y="-171.35"/>
<text text-anchor="middle" x="1342.41" y="-107.65" font-family="Arial" font-size="14.00">S3 Buckets</text>
</g>
<!-- IoT Core&#45;&gt;S3 Buckets -->
<g id="edge4" class="edge">
<title>IoT Core&#45;&gt;S3 Buckets</title>
<path fill="none" stroke="#666666" d="M495.19,-269.25C640.85,-269.25 1331.41,-269.25 1331.41,-269.25 1331.41,-269.25 1331.41,-182.84 1331.41,-182.84"/>
<polygon fill="#666666" stroke="#666666" points="1334.91,-182.84 1331.41,-172.84 1327.91,-182.84 1334.91,-182.84"/>
<text text-anchor="middle" x="985.76" y="-255.95" font-family="Times,serif" font-size="14.00">stores files</text>
</g>
<!-- SQS Queues -->
<g id="node5" class="node">
<title>SQS Queues</title>
<image xlink:href="Resource-Icons_06072024/Res_Application-Integration/Res_Amazon-Simple-Queue-Service_Queue_48.png" width="48px" height="48px" preserveAspectRatio="xMinYMin meet" x="1063.41" y="-232.35"/>
<text text-anchor="middle" x="1087.41" y="-168.65" font-family="Arial" font-size="14.00">SQS Queues</text>
</g>
<!-- IoT Core&#45;&gt;SQS Queues -->
<g id="edge5" class="edge">
<title>IoT Core&#45;&gt;SQS Queues</title>
<path fill="none" stroke="#666666" d="M468.41,-258.09C468.41,-239.88 468.41,-222.35 468.41,-222.35 468.41,-222.35 1035.76,-222.35 1035.76,-222.35"/>
<polygon fill="#666666" stroke="#666666" points="1035.76,-225.85 1045.76,-222.35 1035.76,-218.85 1035.76,-225.85"/>
<text text-anchor="middle" x="691.47" y="-209.05" font-family="Times,serif" font-size="14.00">sends messages</text>
</g>
<!-- Timestream -->
<g id="node7" class="node">
<title>Timestream</title>
<image xlink:href="Architecture-Service-Icons_06072024/Arch_Database/48/Arch_Amazon-Timestream_48.png" width="64px" height="64px" preserveAspectRatio="xMinYMin meet" x="1055.41" y="-907.55"/>
<text text-anchor="middle" x="1087.41" y="-829.45" font-family="Arial" font-size="14.00">Timestream</text>
</g>
<!-- IoT Core&#45;&gt;Timestream -->
<g id="edge3" class="edge">
<title>IoT Core&#45;&gt;Timestream</title>
<path fill="none" stroke="#666666" d="M495.25,-320.77C529.8,-320.77 585.41,-320.77 585.41,-320.77 585.41,-320.77 585.41,-853.85 585.41,-853.85 585.41,-853.85 1039.8,-853.85 1039.8,-853.85"/>
<polygon fill="#666666" stroke="#666666" points="1039.8,-857.35 1049.8,-853.85 1039.8,-850.35 1039.8,-857.35"/>
<text text-anchor="middle" x="556.54" y="-756.13" font-family="Times,serif" font-size="14.00">stores data</text>
</g>
<!-- IoT Core&#45;&gt;IAM Roles -->
<g id="edge6" class="edge">
<title>IoT Core&#45;&gt;IAM Roles</title>
<path fill="none" stroke="#666666" d="M495.27,-291.75C614.9,-291.75 1093.41,-291.75 1093.41,-291.75 1093.41,-291.75 1093.41,-587.8 1093.41,-587.8"/>
<polygon fill="#666666" stroke="#666666" points="1089.91,-587.8 1093.41,-597.8 1096.91,-587.8 1089.91,-587.8"/>
<text text-anchor="middle" x="965.24" y="-278.45" font-family="Times,serif" font-size="14.00">assumes</text>
</g>
<!-- Lambda Functions&#45;&gt;S3 Buckets -->
<g id="edge8" class="edge">
<title>Lambda Functions&#45;&gt;S3 Buckets</title>
<path fill="none" stroke="#666666" d="M839.06,-135.7C839.06,-135.7 1296.9,-135.7 1296.9,-135.7"/>
<polygon fill="#666666" stroke="#666666" points="1296.9,-139.2 1306.9,-135.7 1296.9,-132.2 1296.9,-139.2"/>
<text text-anchor="middle" x="1035.35" y="-122.4" font-family="Times,serif" font-size="14.00">reads/writes</text>
</g>
<!-- Lambda Functions&#45;&gt;SQS Queues -->
<g id="edge9" class="edge">
<title>Lambda Functions&#45;&gt;SQS Queues</title>
<path fill="none" stroke="#666666" d="M783.41,-171.21C783.41,-179.88 783.41,-186.85 783.41,-186.85 783.41,-186.85 1035.53,-186.85 1035.53,-186.85"/>
<polygon fill="#666666" stroke="#666666" points="1035.53,-190.35 1045.53,-186.85 1035.53,-183.35 1035.53,-190.35"/>
<text text-anchor="middle" x="955.28" y="-173.55" font-family="Times,serif" font-size="14.00">processes messages</text>
</g>
<!-- Secrets Manager -->
<g id="node9" class="node">
<title>Secrets Manager</title>
<image xlink:href="Architecture-Service-Icons_06072024/Arch_Security-Identity-Compliance/48/Arch_AWS-Secrets-Manager_48.png" width="64px" height="64px" preserveAspectRatio="xMinYMin meet" x="751.413" y="-679.55"/>
<text text-anchor="middle" x="783.41" y="-601.45" font-family="Arial" font-size="14.00">Secrets Manager</text>
</g>
<!-- Lambda Functions&#45;&gt;Secrets Manager -->
<g id="edge7" class="edge">
<title>Lambda Functions&#45;&gt;Secrets Manager</title>
<path fill="none" stroke="#666666" d="M727.71,-147.92C693.59,-147.92 656.41,-147.92 656.41,-147.92 656.41,-147.92 656.41,-639.27 656.41,-639.27 656.41,-639.27 720.24,-639.27 720.24,-639.27"/>
<polygon fill="#666666" stroke="#666666" points="720.24,-642.78 730.24,-639.28 720.24,-635.78 720.24,-642.78"/>
<text text-anchor="middle" x="613.29" y="-376.56" font-family="Times,serif" font-size="14.00">accesses secrets</text>
</g>
<!-- SNS Topics -->
<g id="node6" class="node">
<title>SNS Topics</title>
<image xlink:href="Resource-Icons_06072024/Res_Application-Integration/Res_Amazon-Simple-Notification-Service_Topic_48.png" width="48px" height="48px" preserveAspectRatio="xMinYMin meet" x="1318.41" y="-907.35"/>
<text text-anchor="middle" x="1342.41" y="-843.65" font-family="Arial" font-size="14.00">SNS Topics</text>
</g>
<!-- Timestream&#45;&gt;S3 Buckets -->
<g id="edge10" class="edge">
<title>Timestream&#45;&gt;S3 Buckets</title>
<path fill="none" stroke="#666666" d="M1123.68,-834.1C1194.08,-834.1 1342.41,-834.1 1342.41,-834.1 1342.41,-834.1 1342.41,-182.42 1342.41,-182.42"/>
<polygon fill="#666666" stroke="#666666" points="1345.91,-182.42 1342.41,-172.42 1338.91,-182.42 1345.91,-182.42"/>
<text text-anchor="middle" x="1309.41" y="-604.33" font-family="Times,serif" font-size="14.00">exports data</text>
</g>
<!-- Timestream&#45;&gt;SNS Topics -->
<g id="edge11" class="edge">
<title>Timestream&#45;&gt;SNS Topics</title>
<path fill="none" stroke="#666666" d="M1123.68,-874.27C1123.68,-874.27 1296.39,-874.27 1296.39,-874.27"/>
<polygon fill="#666666" stroke="#666666" points="1296.39,-877.78 1306.39,-874.28 1296.39,-870.78 1296.39,-877.78"/>
<text text-anchor="middle" x="1176.29" y="-860.98" font-family="Times,serif" font-size="14.00">notifications</text>
</g>
<!-- GuardDuty -->
<g id="node10" class="node">
<title>GuardDuty</title>
<image xlink:href="Architecture-Service-Icons_06072024/Arch_Security-Identity-Compliance/48/Arch_Amazon-GuardDuty_48.png" width="64px" height="64px" preserveAspectRatio="xMinYMin meet" x="751.413" y="-778.55"/>
<text text-anchor="middle" x="783.41" y="-700.45" font-family="Arial" font-size="14.00">GuardDuty</text>
</g>
<!-- GuardDuty&#45;&gt;SNS Topics -->
<g id="edge23" class="edge">
<title>GuardDuty&#45;&gt;SNS Topics</title>
<path fill="none" stroke="#666666" d="M816.11,-738.27C937.22,-738.27 1353.41,-738.27 1353.41,-738.27 1353.41,-738.27 1353.41,-829.84 1353.41,-829.84"/>
<polygon fill="#666666" stroke="#666666" points="1349.91,-829.84 1353.41,-839.84 1356.91,-829.84 1349.91,-829.84"/>
<text text-anchor="middle" x="1115.92" y="-724.98" font-family="Times,serif" font-size="14.00">alerts</text>
</g>
<!-- OIDC Provider -->
<g id="node11" class="node">
<title>OIDC Provider</title>
<image xlink:href="Resource-Icons_06072024/Res_Security-Identity-Compliance/Res_AWS-Identity-Access-Management_Permissions_48.png" width="48px" height="48px" preserveAspectRatio="xMinYMin meet" x="759.413" y="-383.55"/>
<text text-anchor="middle" x="783.41" y="-305.45" font-family="Arial" font-size="14.00">OIDC Provider</text>
</g>
<!-- OIDC Provider&#45;&gt;IAM Roles -->
<g id="edge25" class="edge">
<title>OIDC Provider&#45;&gt;IAM Roles</title>
<path fill="none" stroke="#666666" d="M827.38,-343.27C910.28,-343.27 1081.41,-343.27 1081.41,-343.27 1081.41,-343.27 1081.41,-587.89 1081.41,-587.89"/>
<polygon fill="#666666" stroke="#666666" points="1077.91,-587.89 1081.41,-597.89 1084.91,-587.89 1077.91,-587.89"/>
<text text-anchor="middle" x="1053.83" y="-329.97" font-family="Times,serif" font-size="14.00">assumes</text>
</g>
<!-- VPC Endpoints -->
<g id="node12" class="node">
<title>VPC Endpoints</title>
<image xlink:href="Architecture-Service-Icons_06072024/Arch_Networking-Content-Delivery/48/Arch_Amazon-Virtual-Private-Cloud_48.png" width="64px" height="64px" preserveAspectRatio="xMinYMin meet" x="436.413" y="-80.55"/>
<text text-anchor="middle" x="468.41" y="-2.45" font-family="Arial" font-size="14.00">VPC Endpoints</text>
</g>
<!-- VPC Endpoints&#45;&gt;S3 Buckets -->
<g id="edge26" class="edge">
<title>VPC Endpoints&#45;&gt;S3 Buckets</title>
<path fill="none" stroke="#666666" d="M513.87,-40.27C693.27,-40.27 1342.41,-40.27 1342.41,-40.27 1342.41,-40.27 1342.41,-93.86 1342.41,-93.86"/>
<polygon fill="#666666" stroke="#666666" points="1338.91,-93.86 1342.41,-103.86 1345.91,-93.86 1338.91,-93.86"/>
<text text-anchor="middle" x="917.06" y="-26.97" font-family="Times,serif" font-size="14.00">private access</text>
</g>
<!-- NAT Gateway -->
<g id="node13" class="node">
<title>NAT Gateway</title>
<image xlink:href="Resource-Icons_06072024/Res_Networking-Content-Delivery/Res_Amazon-VPC_NAT-Gateway_48.png" width="48px" height="48px" preserveAspectRatio="xMinYMin meet" x="444.413" y="-429.95"/>
<text text-anchor="middle" x="468.41" y="-359.05" font-family="Arial" font-size="14.00">NAT Gateway</text>
</g>
<!-- Route53 -->
<g id="node14" class="node">
<title>Route53</title>
<image xlink:href="Architecture-Service-Icons_06072024/Arch_Networking-Content-Delivery/48/Arch_Amazon-Route-53_48.png" width="54px" height="64px" preserveAspectRatio="xMinYMin meet" x="441.413" y="-520.95"/>
<text text-anchor="middle" x="468.41" y="-450.05" font-family="Arial" font-size="14.00">Route53</text>
</g>
<!-- CloudWatch Logs -->
<g id="node15" class="node">
<title>CloudWatch Logs</title>
<image xlink:href="Resource-Icons_06072024/Res_Management-Governance/Res_Amazon-CloudWatch_Logs_48.png" width="48px" height="48px" preserveAspectRatio="xMinYMin meet" x="134.413" y="-426.35"/>
<text text-anchor="middle" x="158.41" y="-362.65" font-family="Arial" font-size="14.00">CloudWatch Logs</text>
</g>
<!-- CloudWatch Logs&#45;&gt;IoT Core -->
<g id="edge14" class="edge">
<title>CloudWatch Logs&#45;&gt;IoT Core</title>
<path fill="none" stroke="#666666" d="M193.41,-360.32C193.41,-332.88 193.41,-298.27 193.41,-298.27 193.41,-298.27 430.03,-298.27 430.03,-298.27"/>
<polygon fill="#666666" stroke="#666666" points="430.03,-301.78 440.03,-298.28 430.03,-294.78 430.03,-301.78"/>
</g>
<!-- CloudWatch Logs&#45;&gt;Lambda Functions -->
<g id="edge12" class="edge">
<title>CloudWatch Logs&#45;&gt;Lambda Functions</title>
<path fill="none" stroke="#666666" d="M140.41,-360.4C140.41,-287.9 140.41,-120.7 140.41,-120.7 140.41,-120.7 716.24,-120.7 716.24,-120.7"/>
<polygon fill="#666666" stroke="#666666" points="716.24,-124.2 726.24,-120.7 716.24,-117.2 716.24,-124.2"/>
</g>
<!-- CloudWatch Logs&#45;&gt;S3 Buckets -->
<g id="edge13" class="edge">
<title>CloudWatch Logs&#45;&gt;S3 Buckets</title>
<path fill="none" stroke="#666666" d="M176.41,-360.41C176.41,-316.78 176.41,-245.17 176.41,-245.17 176.41,-245.17 1319.41,-245.17 1319.41,-245.17 1319.41,-245.17 1319.41,-182.73 1319.41,-182.73"/>
<polygon fill="#666666" stroke="#666666" points="1322.91,-182.73 1319.41,-172.73 1315.91,-182.73 1322.91,-182.73"/>
</g>
<!-- CloudWatch Logs&#45;&gt;SQS Queues -->
<g id="edge17" class="edge">
<title>CloudWatch Logs&#45;&gt;SQS Queues</title>
<path fill="none" stroke="#666666" d="M158.41,-360.51C158.41,-308.37 158.41,-212.35 158.41,-212.35 158.41,-212.35 1035.68,-212.35 1035.68,-212.35"/>
<polygon fill="#666666" stroke="#666666" points="1035.68,-215.85 1045.68,-212.35 1035.68,-208.85 1035.68,-215.85"/>
</g>
<!-- CloudWatch Logs&#45;&gt;SNS Topics -->
<g id="edge16" class="edge">
<title>CloudWatch Logs&#45;&gt;SNS Topics</title>
<path fill="none" stroke="#666666" d="M176.41,-426.25C176.41,-471.41 176.41,-546.97 176.41,-546.97 176.41,-546.97 1365.41,-546.97 1365.41,-546.97 1365.41,-546.97 1365.41,-829.88 1365.41,-829.88"/>
<polygon fill="#666666" stroke="#666666" points="1361.91,-829.88 1365.41,-839.88 1368.91,-829.88 1361.91,-829.88"/>
</g>
<!-- CloudWatch Logs&#45;&gt;Timestream -->
<g id="edge15" class="edge">
<title>CloudWatch Logs&#45;&gt;Timestream</title>
<path fill="none" stroke="#666666" d="M122.41,-426.01C122.41,-535.3 122.41,-880.7 122.41,-880.7 122.41,-880.7 1039.54,-880.7 1039.54,-880.7"/>
<polygon fill="#666666" stroke="#666666" points="1039.54,-884.2 1049.54,-880.7 1039.54,-877.2 1039.54,-884.2"/>
</g>
<!-- CloudWatch Logs&#45;&gt;IAM Roles -->
<g id="edge19" class="edge">
<title>CloudWatch Logs&#45;&gt;IAM Roles</title>
<path fill="none" stroke="#666666" d="M158.41,-426.24C158.41,-478.12 158.41,-572.98 158.41,-572.98 158.41,-572.98 1068.41,-572.98 1068.41,-572.98 1068.41,-572.98 1068.41,-587.99 1068.41,-587.99"/>
<polygon fill="#666666" stroke="#666666" points="1064.91,-587.99 1068.41,-597.99 1071.91,-587.99 1064.91,-587.99"/>
</g>
<!-- CloudWatch Logs&#45;&gt;GuardDuty -->
<g id="edge18" class="edge">
<title>CloudWatch Logs&#45;&gt;GuardDuty</title>
<path fill="none" stroke="#666666" d="M140.41,-426.04C140.41,-512.16 140.41,-738.27 140.41,-738.27 140.41,-738.27 739.13,-738.27 739.13,-738.27"/>
<polygon fill="#666666" stroke="#666666" points="739.13,-741.78 749.13,-738.28 739.13,-734.78 739.13,-741.78"/>
</g>
<!-- CloudWatch Logs&#45;&gt;VPC Endpoints -->
<g id="edge21" class="edge">
<title>CloudWatch Logs&#45;&gt;VPC Endpoints</title>
<path fill="none" stroke="#666666" d="M122.41,-360.38C122.41,-272.75 122.41,-40.27 122.41,-40.27 122.41,-40.27 411.31,-40.27 411.31,-40.27"/>
<polygon fill="#666666" stroke="#666666" points="411.31,-43.78 421.31,-40.28 411.31,-36.78 411.31,-43.78"/>
</g>
<!-- CloudWatch Logs&#45;&gt;NAT Gateway -->
<g id="edge20" class="edge">
<title>CloudWatch Logs&#45;&gt;NAT Gateway</title>
<path fill="none" stroke="#666666" d="M211.35,-393.27C211.35,-393.27 415.11,-393.27 415.11,-393.27"/>
<polygon fill="#666666" stroke="#666666" points="415.11,-396.78 425.11,-393.28 415.11,-389.78 415.11,-396.78"/>
</g>
<!-- CloudWatch Logs&#45;&gt;Route53 -->
<g id="edge22" class="edge">
<title>CloudWatch Logs&#45;&gt;Route53</title>
<path fill="none" stroke="#666666" d="M193.41,-426.13C193.41,-452.19 193.41,-484.27 193.41,-484.27 193.41,-484.27 430.03,-484.27 430.03,-484.27"/>
<polygon fill="#666666" stroke="#666666" points="430.03,-487.78 440.03,-484.28 430.03,-480.78 430.03,-487.78"/>
</g>
<!-- GitHub Actions -->
<g id="node16" class="node">
<title>GitHub Actions</title>
<image xlink:href="github-mark.png" width="64px" height="64px" preserveAspectRatio="xMinYMin meet" x="751.413" y="-467.35"/>
<text text-anchor="middle" x="783.41" y="-403.65" font-family="Arial" font-size="14.00">GitHub Actions</text>
</g>
<!-- GitHub Actions&#45;&gt;OIDC Provider -->
<g id="edge24" class="edge">
<title>GitHub Actions&#45;&gt;OIDC Provider</title>
<path fill="none" stroke="#666666" d="M783.41,-401.42C783.41,-401.42 783.41,-395.05 783.41,-395.05"/>
<polygon fill="#666666" stroke="#666666" points="786.91,-395.05 783.41,-385.05 779.91,-395.05 786.91,-395.05"/>
<text text-anchor="middle" x="748.16" y="-384.94" font-family="Times,serif" font-size="14.00">authenticates</text>
</g>
</g>
</svg>
