<?xml version="1.0" encoding="UTF-8" standalone="no"?>
<!DOCTYPE svg PUBLIC "-//W3C//DTD SVG 1.1//EN"
 "http://www.w3.org/Graphics/SVG/1.1/DTD/svg11.dtd">
<!-- Generated by graphviz version 12.2.1 (20241206.2353)
 -->
<!-- Pages: 1 -->
<svg width="618pt" height="216pt"
 viewBox="0.00 0.00 617.87 216.00" xmlns="http://www.w3.org/2000/svg" xmlns:xlink="http://www.w3.org/1999/xlink">
<g id="graph0" class="graph" transform="scale(0.848723 0.848723) rotate(0) translate(4 250.5)">
<polygon fill="white" stroke="none" points="-4,4 -4,-250.5 724,-250.5 724,4 -4,4"/>
<text text-anchor="middle" x="360" y="-7.5" font-family="Times,serif" font-size="20.00">AWS Architecture Diagram Openid</text>
<g id="clust1" class="cluster">
<title>cluster_security</title>
<polygon fill="#fff0f0" stroke="#ff6b6b" stroke-dasharray="5,2" points="279.25,-53.16 279.25,-223.84 703.33,-223.84 703.33,-53.16 279.25,-53.16"/>
<text text-anchor="middle" x="491.29" y="-200.84" font-family="Times,serif" font-size="20.00">Security</text>
</g>
<g id="clust2" class="cluster">
<title>cluster_cicd</title>
<polygon fill="#f0f8ff" stroke="#4a90e2" stroke-dasharray="5,2" points="16.67,-42.58 16.67,-234.42 237.57,-234.42 237.57,-42.58 16.67,-42.58"/>
<text text-anchor="middle" x="127.12" y="-211.42" font-family="Times,serif" font-size="20.00">CI/CD</text>
</g>
<!-- IAM Roles -->
<g id="node1" class="node">
<title>IAM Roles</title>
<image xlink:href="../../icons/resources/Res_Security-Identity-Compliance/Res_AWS-Identity-Access-Management_Role_48.png" width="48px" height="48px" preserveAspectRatio="xMinYMin meet" x="597.329" y="-148.575"/>
<text text-anchor="middle" x="621.33" y="-84.88" font-family="Arial" font-size="14.00">IAM Roles</text>
</g>
<!-- OIDC Provider -->
<g id="node2" class="node">
<title>OIDC Provider</title>
<image xlink:href="../../icons/resources/Res_Security-Identity-Compliance/Res_AWS-Identity-Access-Management_Permissions_48.png" width="48px" height="48px" preserveAspectRatio="xMinYMin meet" x="364.329" y="-148.575"/>
<text text-anchor="middle" x="388.33" y="-84.88" font-family="Arial" font-size="14.00">OIDC Provider</text>
</g>
<!-- OIDC Provider&#45;&gt;IAM Roles -->
<g id="edge2" class="edge">
<title>OIDC Provider&#45;&gt;IAM Roles</title>
<path fill="none" stroke="#4a4a4a" d="M432.43,-115.5C432.43,-115.5 578.57,-115.5 578.57,-115.5"/>
<polygon fill="#4a4a4a" stroke="#4a4a4a" points="578.57,-119 588.57,-115.5 578.57,-112 578.57,-119"/>
<text text-anchor="middle" x="482.62" y="-102.2" font-family="Times,serif" font-size="14.00">assumes</text>
</g>
<!-- GitHub Actions -->
<g id="node3" class="node">
<title>GitHub Actions</title>
<image xlink:href="github-mark.png" width="64px" height="64px" preserveAspectRatio="xMinYMin meet" x="95.3285" y="-155.775"/>
<text text-anchor="middle" x="127.33" y="-77.67" font-family="Arial" font-size="14.00">GitHub Actions</text>
</g>
<!-- GitHub Actions&#45;&gt;OIDC Provider -->
<g id="edge1" class="edge">
<title>GitHub Actions&#45;&gt;OIDC Provider</title>
<path fill="none" stroke="#4a4a4a" d="M172.2,-115.5C172.2,-115.5 332.97,-115.5 332.97,-115.5"/>
<polygon fill="#4a4a4a" stroke="#4a4a4a" points="332.97,-119 342.97,-115.5 332.97,-112 332.97,-119"/>
<text text-anchor="middle" x="217.33" y="-102.2" font-family="Times,serif" font-size="14.00">authenticates</text>
</g>
</g>
</svg>
