<?xml version="1.0" encoding="UTF-8" standalone="no"?>
<!DOCTYPE svg PUBLIC "-//W3C//DTD SVG 1.1//EN"
 "http://www.w3.org/Graphics/SVG/1.1/DTD/svg11.dtd">
<!-- Generated by graphviz version 12.2.1 (20241206.2353)
 -->
<!-- Pages: 1 -->
<svg width="720pt" height="720pt"
 viewBox="0.00 0.00 720.00 720.00" xmlns="http://www.w3.org/2000/svg" xmlns:xlink="http://www.w3.org/1999/xlink">
<g id="graph0" class="graph" transform="scale(0.989011 0.989011) rotate(0) translate(4 724)">
<polygon fill="white" stroke="none" points="-4,4 -4,-724 724,-724 724,4 -4,4"/>
<!-- API Gateway -->
<g id="node1" class="node">
<title>API Gateway</title>
<image xlink:href="Resource-Icons_06072024/Res_Networking-Content-Delivery/Res_Amazon-API-Gateway_Endpoint_48.png" width="48px" height="48px" preserveAspectRatio="xMinYMin meet" x="68" y="-406.516"/>
<text text-anchor="middle" x="92" y="-342.82" font-family="Arial" font-size="14.00">API Gateway</text>
</g>
<!-- Lambda Function -->
<g id="node2" class="node">
<title>Lambda Function</title>
<image xlink:href="Resource-Icons_06072024/Res_Compute/Res_AWS-Lambda_Lambda-Function_48.png" width="48px" height="48px" preserveAspectRatio="xMinYMin meet" x="363" y="-406.516"/>
<text text-anchor="middle" x="387" y="-342.82" font-family="Arial" font-size="14.00">Lambda Function</text>
</g>
<!-- API Gateway&#45;&gt;Lambda Function -->
<g id="edge1" class="edge">
<title>API Gateway&#45;&gt;Lambda Function</title>
<path fill="none" stroke="#666666" d="M131.48,-373.44C131.48,-373.44 323.06,-373.44 323.06,-373.44"/>
<polygon fill="#666666" stroke="#666666" points="323.06,-376.94 333.06,-373.44 323.06,-369.94 323.06,-376.94"/>
<text text-anchor="middle" x="206.27" y="-360.14" font-family="Times,serif" font-size="14.00">invokes</text>
</g>
<!-- IAM Role -->
<g id="node3" class="node">
<title>IAM Role</title>
<image xlink:href="Resource-Icons_06072024/Res_Security-Identity-Compliance/Res_AWS-Identity-Access-Management_Role_48.png" width="48px" height="48px" preserveAspectRatio="xMinYMin meet" x="631" y="-608.516"/>
<text text-anchor="middle" x="655" y="-544.82" font-family="Arial" font-size="14.00">IAM Role</text>
</g>
<!-- Lambda Function&#45;&gt;IAM Role -->
<g id="edge2" class="edge">
<title>Lambda Function&#45;&gt;IAM Role</title>
<path fill="none" stroke="#666666" d="M439.41,-384.47C515.09,-384.47 646,-384.47 646,-384.47 646,-384.47 646,-531.1 646,-531.1"/>
<polygon fill="#666666" stroke="#666666" points="642.5,-531.1 646,-541.1 649.5,-531.1 642.5,-531.1"/>
<text text-anchor="middle" x="593.15" y="-371.17" font-family="Times,serif" font-size="14.00">assumes</text>
</g>
<!-- Secret -->
<g id="node4" class="node">
<title>Secret</title>
<image xlink:href="Architecture-Service-Icons_06072024/Arch_Security-Identity-Compliance/48/Arch_AWS-Secrets-Manager_48.png" width="54px" height="64px" preserveAspectRatio="xMinYMin meet" x="628" y="-216.716"/>
<text text-anchor="middle" x="655" y="-138.62" font-family="Arial" font-size="14.00">Secret</text>
</g>
<!-- Lambda Function&#45;&gt;Secret -->
<g id="edge3" class="edge">
<title>Lambda Function&#45;&gt;Secret</title>
<path fill="none" stroke="#666666" d="M439.43,-362.42C519.73,-362.42 664,-362.42 664,-362.42 664,-362.42 664,-227.85 664,-227.85"/>
<polygon fill="#666666" stroke="#666666" points="667.5,-227.85 664,-217.85 660.5,-227.85 667.5,-227.85"/>
<text text-anchor="middle" x="596.12" y="-349.12" font-family="Times,serif" font-size="14.00">accesses</text>
</g>
</g>
</svg>
